<svg width="201" height="70" viewBox="0 0 201 70" fill="none" xmlns="http://www.w3.org/2000/svg">
<path d="M76.1258 7.936C75.2298 10.688 73.5018 12.8 70.9418 14.272C68.3818 15.744 65.1818 16.48 61.3418 16.48C58.2698 16.48 55.0698 16.224 51.7418 15.712C48.4138 15.136 45.0858 14.432 41.7578 13.6C40.9258 15.776 40.3178 18.176 39.9338 20.8C39.6138 23.36 39.1978 26.144 38.6858 29.152C37.9818 33.376 37.0538 37.664 35.9018 42.016C34.7498 46.368 33.2138 50.336 31.2938 53.92C29.3738 57.504 26.8778 60.224 23.8058 62.08C22.4618 62.848 21.1818 63.648 19.9658 64.48C18.8138 65.312 17.5018 66.016 16.0298 66.592C14.6218 67.168 12.7978 67.456 10.5578 67.456C7.67775 67.456 5.50175 66.912 4.02975 65.824C2.62175 64.8 1.66175 63.328 1.14975 61.408C0.70175 59.488 0.47775 57.216 0.47775 54.592C0.47775 54.144 0.57375 53.312 0.76575 52.096C1.02175 50.88 1.27775 49.664 1.53375 48.448C1.85375 47.232 2.14175 46.4 2.39775 45.952C2.84575 44.928 3.61375 43.648 4.70175 42.112C5.85375 40.576 7.16575 39.04 8.63775 37.504C10.1098 35.968 11.6138 34.688 13.1498 33.664C14.6858 32.64 16.0938 32.128 17.3738 32.128C17.8858 32.128 18.4618 32.544 19.1018 33.376C19.8058 34.144 20.4138 35.04 20.9258 36.064C21.4378 37.088 21.6938 37.952 21.6938 38.656C21.6938 38.912 21.5658 39.52 21.3098 40.48C21.1178 41.376 20.7018 42.4 20.0618 43.552C19.4218 44.64 18.4618 45.6 17.1818 46.432C16.9258 46.496 16.6698 46.528 16.4138 46.528C16.2218 46.528 15.9978 46.528 15.7418 46.528C13.9498 46.528 13.0538 46.176 13.0538 45.472C13.0538 44.896 13.6298 44.384 14.7818 43.936C15.9338 43.424 16.7978 43.136 17.3738 43.072C18.0138 43.008 18.4298 42.752 18.6218 42.304C18.8138 41.792 18.9098 40.704 18.9098 39.04C18.9098 38.72 18.8138 38.24 18.6218 37.6C18.4938 36.96 18.3018 36.352 18.0458 35.776C17.8538 35.2 17.6298 34.912 17.3738 34.912C16.2858 34.912 15.1978 35.392 14.1098 36.352C13.0858 37.312 12.1258 38.496 11.2298 39.904C10.3338 41.312 9.53375 42.72 8.82975 44.128C8.12575 45.472 7.61375 46.592 7.29375 47.488C7.16575 47.872 6.94175 48.512 6.62175 49.408C6.30175 50.24 6.01375 51.104 5.75775 52C5.50175 52.832 5.37375 53.472 5.37375 53.92C5.37375 54.752 5.34175 55.616 5.27775 56.512C5.27775 57.344 5.27775 58.112 5.27775 58.816C5.27775 60.544 5.56575 61.952 6.14175 63.04C6.78175 64.128 8.25375 64.672 10.5578 64.672C12.5418 64.672 14.1738 64.32 15.4538 63.616C16.7978 62.848 17.9498 61.952 18.9098 60.928C19.9338 59.84 20.9258 58.784 21.8858 57.76C25.7898 53.792 28.8298 49.44 31.0058 44.704C33.2458 39.904 34.8458 34.56 35.8058 28.672C36.3178 25.536 36.8618 22.72 37.4378 20.224C38.0778 17.664 38.9098 15.296 39.9338 13.12C36.6698 12.224 33.5338 11.328 30.5258 10.432C27.5818 9.472 24.8938 8.64 22.4618 7.936C21.1178 7.488 19.9658 7.072 19.0058 6.688C18.1098 6.24 16.7018 6.016 14.7818 6.016C13.3738 6.016 11.9658 6.208 10.5578 6.592C9.21375 6.91199 8.54175 7.744 8.54175 9.088C8.54175 9.472 8.50975 9.92 8.44575 10.432C8.44575 10.944 8.44575 11.456 8.44575 11.968C8.44575 13.184 8.60575 14.432 8.92575 15.712C9.24575 16.928 9.91775 17.984 10.9418 18.88C11.9658 19.712 13.5658 20.192 15.7418 20.32C16.6378 20.384 17.3418 20.192 17.8538 19.744C18.4298 19.296 18.9098 18.848 19.2938 18.4C19.5498 17.76 20.0298 17.44 20.7338 17.44C21.3738 17.44 21.6938 17.888 21.6938 18.784C21.6938 18.976 21.6618 19.168 21.5978 19.36C21.5978 19.552 21.5658 19.776 21.5018 20.032C20.8618 20.8 20.0938 21.536 19.1978 22.24C18.3658 22.88 17.2138 23.2 15.7418 23.2C14.6538 23.2 13.4058 23.008 11.9978 22.624C10.6538 22.176 9.34175 21.408 8.06175 20.32C6.78175 19.168 5.75775 17.6 4.98975 15.616C4.28575 13.568 4.02975 10.976 4.22175 7.84C4.34975 6.56 4.82975 5.344 5.66175 4.192C6.55775 3.04 7.64575 2.112 8.92575 1.408C10.2698 0.639997 11.5818 0.255997 12.8618 0.255997C13.8858 0.255997 15.1658 0.415997 16.7018 0.735996C18.2378 1.056 19.8058 1.44 21.4058 1.888C23.0698 2.336 24.5738 2.784 25.9178 3.232C27.3258 3.68 28.4138 4.032 29.1818 4.288C31.2298 4.928 33.3098 5.728 35.4218 6.688C37.5338 7.584 39.7098 8.48 41.9498 9.376C42.0778 9.184 42.2058 8.992 42.3338 8.8C42.5258 8.608 42.6858 8.384 42.8138 8.128C43.5178 7.168 44.2218 6.688 44.9258 6.688C45.2458 6.688 45.4058 6.848 45.4058 7.168C45.4058 7.744 44.9578 8.512 44.0618 9.472C43.9978 9.536 43.9338 9.632 43.8698 9.76C43.8058 9.824 43.7098 9.92 43.5818 10.048C46.5258 11.2 49.5338 12.192 52.6058 13.024C55.6778 13.856 58.8778 14.272 62.2058 14.272C68.3498 14.272 72.1898 12.128 73.7258 7.84C73.7898 6.176 74.1418 5.344 74.7818 5.344C75.1018 5.344 75.3898 5.6 75.6458 6.112C75.9658 6.624 76.1258 7.232 76.1258 7.936ZM123.285 61.792C122.005 63.584 120.533 64.832 118.869 65.536C117.269 66.304 115.765 66.688 114.357 66.688C113.013 66.688 111.893 66.432 110.997 65.92C110.293 65.536 109.493 64.864 108.597 63.904C107.765 62.944 107.029 61.728 106.389 60.256C105.813 58.784 105.589 57.088 105.717 55.168C105.845 52.544 106.133 49.632 106.581 46.432C107.093 43.168 107.605 40.032 108.117 37.024C108.693 34.016 109.173 31.488 109.557 29.44C110.005 27.392 110.229 26.24 110.229 25.984C110.229 24 109.845 22.176 109.077 20.512C108.309 18.848 107.285 17.536 106.005 16.576C104.789 15.552 103.509 15.136 102.165 15.328C100.885 15.456 99.445 16.704 97.845 19.072C96.309 21.376 94.869 24.48 93.525 28.384C92.245 32.224 91.317 36.576 90.741 41.44C90.101 46.816 89.589 51.712 89.205 56.128C88.821 60.544 88.533 63.744 88.341 65.728C88.277 66.624 87.669 67.36 86.517 67.936C85.429 68.576 84.277 69.024 83.061 69.28C81.845 69.6 81.045 69.76 80.661 69.76C80.085 69.76 79.797 69.344 79.797 68.512C79.797 67.872 79.925 67.104 80.181 66.208C80.501 65.376 80.725 64.736 80.853 64.288C82.197 60.32 83.125 56.576 83.637 53.056C84.213 49.472 84.501 46.048 84.501 42.784C84.501 39.392 84.277 36.192 83.829 33.184C83.381 30.112 82.837 27.2 82.197 24.448C81.045 19.52 78.933 15.872 75.861 13.504C72.853 11.136 69.461 9.952 65.685 9.952C64.725 9.952 63.701 10.048 62.613 10.24C60.117 10.624 57.653 11.456 55.221 12.736C52.853 14.016 50.869 15.776 49.269 18.016C47.733 20.192 46.965 22.944 46.965 26.272C46.965 28.768 47.541 31.616 48.693 34.816C49.269 36.416 50.293 37.856 51.765 39.136C53.301 40.416 54.933 41.44 56.661 42.208C58.453 42.912 59.989 43.264 61.269 43.264C61.589 43.264 61.877 43.264 62.133 43.264C62.389 43.2 62.613 43.136 62.805 43.072C64.853 42.368 66.389 41.184 67.413 39.52C68.437 37.792 68.949 36.032 68.949 34.24C68.949 32.704 68.597 31.264 67.893 29.92C67.189 28.576 66.133 27.552 64.725 26.848C64.085 26.592 63.765 26.176 63.765 25.6C63.765 24.96 64.277 24.64 65.301 24.64C65.621 24.64 65.973 24.672 66.357 24.736C66.805 24.8 67.253 24.96 67.701 25.216C68.981 25.728 70.197 26.88 71.349 28.672C72.501 30.4 73.077 32.256 73.077 34.24C73.077 35.968 72.661 37.664 71.829 39.328C71.061 40.928 70.101 42.336 68.949 43.552C67.861 44.704 66.805 45.472 65.781 45.856C64.757 46.24 63.573 46.432 62.229 46.432C60.309 46.432 58.293 45.984 56.181 45.088C54.133 44.192 52.245 42.912 50.517 41.248C48.853 39.584 47.605 37.632 46.773 35.392C46.133 33.536 45.653 31.808 45.333 30.208C45.013 28.544 44.853 27.008 44.853 25.6C44.853 21.888 45.717 18.848 47.445 16.48C49.173 14.048 51.317 12.16 53.877 10.816C56.501 9.408 59.157 8.448 61.845 7.936C62.613 7.744 63.381 7.616 64.149 7.552C64.917 7.488 65.621 7.456 66.261 7.456C69.269 7.456 71.893 8.128 74.133 9.472C76.437 10.752 78.421 12.448 80.085 14.56C81.749 16.608 83.157 18.848 84.309 21.28C85.461 23.712 86.453 26.048 87.285 28.288C87.541 29.312 87.797 30.176 88.053 30.88C88.373 31.584 88.661 31.936 88.917 31.936C89.365 31.936 89.589 30.944 89.589 28.96C89.653 27.232 90.165 25.408 91.125 23.488C92.085 21.504 93.173 19.648 94.389 17.92C95.605 16.192 96.565 14.816 97.269 13.792C98.165 12.96 99.189 12.384 100.341 12.064C101.493 11.744 102.581 11.584 103.605 11.584C105.205 11.584 106.549 11.904 107.637 12.544C109.237 13.632 110.517 14.976 111.477 16.576C112.437 18.176 113.333 20.416 114.165 23.296C114.357 23.872 114.485 24.48 114.549 25.12C114.613 25.696 114.645 26.304 114.645 26.944C114.645 29.056 114.325 31.232 113.685 33.472C113.045 35.712 112.277 37.952 111.381 40.192C110.549 42.432 109.813 44.576 109.173 46.624C108.533 48.672 108.213 50.528 108.213 52.192C108.213 55.776 108.469 58.464 108.981 60.256C109.557 62.048 110.261 63.232 111.093 63.808C111.925 64.384 112.757 64.672 113.589 64.672C114.293 64.672 114.965 64.576 115.605 64.384C116.245 64.256 116.789 64.256 117.237 64.384C118.005 64.576 118.613 64.416 119.061 63.904C119.573 63.392 119.957 62.752 120.213 61.984C120.533 61.216 120.821 60.544 121.077 59.968C121.397 59.392 121.749 59.104 122.133 59.104C123.221 59.424 123.765 59.936 123.765 60.64C123.765 60.896 123.605 61.28 123.285 61.792ZM200.907 7.936C200.011 10.688 198.283 12.8 195.723 14.272C193.163 15.744 189.963 16.48 186.123 16.48C183.051 16.48 179.851 16.224 176.523 15.712C173.195 15.136 169.867 14.432 166.539 13.6C165.707 15.776 165.099 18.176 164.715 20.8C164.395 23.36 163.979 26.144 163.467 29.152C162.763 33.376 161.835 37.664 160.683 42.016C159.531 46.368 157.995 50.336 156.075 53.92C154.155 57.504 151.659 60.224 148.587 62.08C147.243 62.848 145.963 63.648 144.747 64.48C143.595 65.312 142.283 66.016 140.811 66.592C139.403 67.168 137.579 67.456 135.339 67.456C132.459 67.456 130.283 66.912 128.811 65.824C127.403 64.8 126.443 63.328 125.931 61.408C125.483 59.488 125.259 57.216 125.259 54.592C125.259 54.144 125.355 53.312 125.547 52.096C125.803 50.88 126.059 49.664 126.315 48.448C126.635 47.232 126.923 46.4 127.179 45.952C127.627 44.928 128.395 43.648 129.483 42.112C130.635 40.576 131.947 39.04 133.419 37.504C134.891 35.968 136.395 34.688 137.931 33.664C139.467 32.64 140.875 32.128 142.155 32.128C142.667 32.128 143.243 32.544 143.883 33.376C144.587 34.144 145.195 35.04 145.707 36.064C146.219 37.088 146.475 37.952 146.475 38.656C146.475 38.912 146.347 39.52 146.091 40.48C145.899 41.376 145.483 42.4 144.843 43.552C144.203 44.64 143.243 45.6 141.963 46.432C141.707 46.496 141.451 46.528 141.195 46.528C141.003 46.528 140.779 46.528 140.523 46.528C138.731 46.528 137.835 46.176 137.835 45.472C137.835 44.896 138.411 44.384 139.563 43.936C140.715 43.424 141.579 43.136 142.155 43.072C142.795 43.008 143.211 42.752 143.403 42.304C143.595 41.792 143.691 40.704 143.691 39.04C143.691 38.72 143.595 38.24 143.403 37.6C143.275 36.96 143.083 36.352 142.827 35.776C142.635 35.2 142.411 34.912 142.155 34.912C141.067 34.912 139.979 35.392 138.891 36.352C137.867 37.312 136.907 38.496 136.011 39.904C135.115 41.312 134.315 42.72 133.611 44.128C132.907 45.472 132.395 46.592 132.075 47.488C131.947 47.872 131.723 48.512 131.403 49.408C131.083 50.24 130.795 51.104 130.539 52C130.283 52.832 130.155 53.472 130.155 53.92C130.155 54.752 130.123 55.616 130.059 56.512C130.059 57.344 130.059 58.112 130.059 58.816C130.059 60.544 130.347 61.952 130.923 63.04C131.563 64.128 133.035 64.672 135.339 64.672C137.323 64.672 138.955 64.32 140.235 63.616C141.579 62.848 142.731 61.952 143.691 60.928C144.715 59.84 145.707 58.784 146.667 57.76C150.571 53.792 153.611 49.44 155.787 44.704C158.027 39.904 159.627 34.56 160.587 28.672C161.099 25.536 161.643 22.72 162.219 20.224C162.859 17.664 163.691 15.296 164.715 13.12C161.451 12.224 158.315 11.328 155.307 10.432C152.363 9.472 149.675 8.64 147.243 7.936C145.899 7.488 144.747 7.072 143.787 6.688C142.891 6.24 141.483 6.016 139.563 6.016C138.155 6.016 136.747 6.208 135.339 6.592C133.995 6.91199 133.323 7.744 133.323 9.088C133.323 9.472 133.291 9.92 133.227 10.432C133.227 10.944 133.227 11.456 133.227 11.968C133.227 13.184 133.387 14.432 133.707 15.712C134.027 16.928 134.699 17.984 135.723 18.88C136.747 19.712 138.347 20.192 140.523 20.32C141.419 20.384 142.123 20.192 142.635 19.744C143.211 19.296 143.691 18.848 144.075 18.4C144.331 17.76 144.811 17.44 145.515 17.44C146.155 17.44 146.475 17.888 146.475 18.784C146.475 18.976 146.443 19.168 146.379 19.36C146.379 19.552 146.347 19.776 146.283 20.032C145.643 20.8 144.875 21.536 143.979 22.24C143.147 22.88 141.995 23.2 140.523 23.2C139.435 23.2 138.187 23.008 136.779 22.624C135.435 22.176 134.123 21.408 132.843 20.32C131.563 19.168 130.539 17.6 129.771 15.616C129.067 13.568 128.811 10.976 129.003 7.84C129.131 6.56 129.611 5.344 130.443 4.192C131.339 3.04 132.427 2.112 133.707 1.408C135.051 0.639997 136.363 0.255997 137.643 0.255997C138.667 0.255997 139.947 0.415997 141.483 0.735996C143.019 1.056 144.587 1.44 146.187 1.888C147.851 2.336 149.355 2.784 150.699 3.232C152.107 3.68 153.195 4.032 153.963 4.288C156.011 4.928 158.091 5.728 160.203 6.688C162.315 7.584 164.491 8.48 166.731 9.376C166.859 9.184 166.987 8.992 167.115 8.8C167.307 8.608 167.467 8.384 167.595 8.128C168.299 7.168 169.003 6.688 169.707 6.688C170.027 6.688 170.187 6.848 170.187 7.168C170.187 7.744 169.739 8.512 168.843 9.472C168.779 9.536 168.715 9.632 168.651 9.76C168.587 9.824 168.491 9.92 168.363 10.048C171.307 11.2 174.315 12.192 177.387 13.024C180.459 13.856 183.659 14.272 186.987 14.272C193.131 14.272 196.971 12.128 198.507 7.84C198.571 6.176 198.923 5.344 199.563 5.344C199.883 5.344 200.171 5.6 200.427 6.112C200.747 6.624 200.907 7.232 200.907 7.936Z" fill="#005157" fill-opacity="0.91"/>
</svg>
