<svg width="373" height="68" viewBox="0 0 373 68" fill="none" xmlns="http://www.w3.org/2000/svg">
<path d="M76.3133 7.936C75.4173 10.688 73.6893 12.8 71.1293 14.272C68.5693 15.744 65.3693 16.48 61.5293 16.48C58.4573 16.48 55.2573 16.224 51.9293 15.712C48.6013 15.136 45.2733 14.432 41.9453 13.6C41.1133 15.776 40.5053 18.176 40.1213 20.8C39.8013 23.36 39.3853 26.144 38.8733 29.152C38.1693 33.376 37.2413 37.664 36.0893 42.016C34.9373 46.368 33.4013 50.336 31.4813 53.92C29.5613 57.504 27.0653 60.224 23.9933 62.08C22.6493 62.848 21.3693 63.648 20.1533 64.48C19.0013 65.312 17.6893 66.016 16.2173 66.592C14.8093 67.168 12.9853 67.456 10.7453 67.456C7.86525 67.456 5.68925 66.912 4.21725 65.824C2.80925 64.8 1.84925 63.328 1.33725 61.408C0.88925 59.488 0.66525 57.216 0.66525 54.592C0.66525 54.144 0.76125 53.312 0.95325 52.096C1.20925 50.88 1.46525 49.664 1.72125 48.448C2.04125 47.232 2.32925 46.4 2.58525 45.952C3.03325 44.928 3.80125 43.648 4.88925 42.112C6.04125 40.576 7.35325 39.04 8.82525 37.504C10.2973 35.968 11.8013 34.688 13.3373 33.664C14.8733 32.64 16.2813 32.128 17.5613 32.128C18.0733 32.128 18.6493 32.544 19.2893 33.376C19.9933 34.144 20.6013 35.04 21.1133 36.064C21.6253 37.088 21.8813 37.952 21.8813 38.656C21.8813 38.912 21.7533 39.52 21.4973 40.48C21.3053 41.376 20.8893 42.4 20.2493 43.552C19.6093 44.64 18.6493 45.6 17.3693 46.432C17.1133 46.496 16.8573 46.528 16.6013 46.528C16.4093 46.528 16.1853 46.528 15.9293 46.528C14.1373 46.528 13.2413 46.176 13.2413 45.472C13.2413 44.896 13.8173 44.384 14.9693 43.936C16.1213 43.424 16.9853 43.136 17.5613 43.072C18.2013 43.008 18.6173 42.752 18.8093 42.304C19.0013 41.792 19.0973 40.704 19.0973 39.04C19.0973 38.72 19.0013 38.24 18.8093 37.6C18.6813 36.96 18.4893 36.352 18.2333 35.776C18.0413 35.2 17.8173 34.912 17.5613 34.912C16.4733 34.912 15.3853 35.392 14.2973 36.352C13.2733 37.312 12.3133 38.496 11.4173 39.904C10.5213 41.312 9.72125 42.72 9.01725 44.128C8.31325 45.472 7.80125 46.592 7.48125 47.488C7.35325 47.872 7.12925 48.512 6.80925 49.408C6.48925 50.24 6.20125 51.104 5.94525 52C5.68925 52.832 5.56125 53.472 5.56125 53.92C5.56125 54.752 5.52925 55.616 5.46525 56.512C5.46525 57.344 5.46525 58.112 5.46525 58.816C5.46525 60.544 5.75325 61.952 6.32925 63.04C6.96925 64.128 8.44125 64.672 10.7453 64.672C12.7293 64.672 14.3613 64.32 15.6413 63.616C16.9853 62.848 18.1373 61.952 19.0973 60.928C20.1213 59.84 21.1133 58.784 22.0733 57.76C25.9773 53.792 29.0173 49.44 31.1933 44.704C33.4333 39.904 35.0333 34.56 35.9933 28.672C36.5053 25.536 37.0493 22.72 37.6253 20.224C38.2653 17.664 39.0973 15.296 40.1213 13.12C36.8573 12.224 33.7213 11.328 30.7133 10.432C27.7693 9.472 25.0813 8.64 22.6493 7.936C21.3053 7.488 20.1533 7.072 19.1933 6.688C18.2973 6.24 16.8893 6.016 14.9693 6.016C13.5613 6.016 12.1533 6.208 10.7453 6.592C9.40125 6.91199 8.72925 7.744 8.72925 9.088C8.72925 9.472 8.69725 9.92 8.63325 10.432C8.63325 10.944 8.63325 11.456 8.63325 11.968C8.63325 13.184 8.79325 14.432 9.11325 15.712C9.43325 16.928 10.1053 17.984 11.1293 18.88C12.1533 19.712 13.7533 20.192 15.9293 20.32C16.8253 20.384 17.5293 20.192 18.0413 19.744C18.6173 19.296 19.0973 18.848 19.4813 18.4C19.7373 17.76 20.2173 17.44 20.9213 17.44C21.5613 17.44 21.8813 17.888 21.8813 18.784C21.8813 18.976 21.8493 19.168 21.7853 19.36C21.7853 19.552 21.7533 19.776 21.6893 20.032C21.0493 20.8 20.2813 21.536 19.3853 22.24C18.5533 22.88 17.4013 23.2 15.9293 23.2C14.8413 23.2 13.5933 23.008 12.1853 22.624C10.8413 22.176 9.52925 21.408 8.24925 20.32C6.96925 19.168 5.94525 17.6 5.17725 15.616C4.47325 13.568 4.21725 10.976 4.40925 7.84C4.53725 6.56 5.01725 5.344 5.84925 4.192C6.74525 3.04 7.83325 2.112 9.11325 1.408C10.4573 0.639997 11.7693 0.255997 13.0493 0.255997C14.0733 0.255997 15.3533 0.415997 16.8893 0.735996C18.4253 1.056 19.9933 1.44 21.5933 1.888C23.2573 2.336 24.7613 2.784 26.1053 3.232C27.5133 3.68 28.6013 4.032 29.3693 4.288C31.4173 4.928 33.4973 5.728 35.6093 6.688C37.7213 7.584 39.8973 8.48 42.1373 9.376C42.2653 9.184 42.3933 8.992 42.5213 8.8C42.7133 8.608 42.8733 8.384 43.0013 8.128C43.7053 7.168 44.4093 6.688 45.1133 6.688C45.4333 6.688 45.5933 6.848 45.5933 7.168C45.5933 7.744 45.1453 8.512 44.2493 9.472C44.1853 9.536 44.1213 9.632 44.0573 9.76C43.9933 9.824 43.8973 9.92 43.7693 10.048C46.7133 11.2 49.7213 12.192 52.7933 13.024C55.8653 13.856 59.0653 14.272 62.3933 14.272C68.5373 14.272 72.3773 12.128 73.9133 7.84C73.9773 6.176 74.3293 5.344 74.9693 5.344C75.2893 5.344 75.5773 5.6 75.8333 6.112C76.1533 6.624 76.3133 7.232 76.3133 7.936ZM63.2543 58.816C63.5103 58.56 63.8623 58.432 64.3103 58.432C64.7583 58.432 64.9823 58.624 64.9823 59.008C64.9823 59.456 64.4703 60.16 63.4463 61.12C62.4223 62.08 61.3023 62.848 60.0863 63.424C58.8703 64 57.7183 64.416 56.6303 64.672C56.1183 64.736 55.4143 64.544 54.5182 64.096C53.6863 63.712 53.1743 63.296 52.9823 62.848C52.7263 62.272 52.5343 61.632 52.4062 60.928C52.2783 60.16 52.2143 59.36 52.2143 58.528C52.2143 56.544 52.4383 54.496 52.8863 52.384C53.3343 50.272 53.7503 48.448 54.1343 46.912C53.3663 47.168 52.5023 47.296 51.5423 47.296C50.6463 47.296 49.8463 47.36 49.1423 47.488C48.6943 48.128 48.3103 48.864 47.9903 49.696C47.6703 50.464 47.2223 51.328 46.6463 52.288C45.6223 53.952 44.4703 55.616 43.1903 57.28C41.9743 58.88 40.7263 60.192 39.4462 61.216C38.1662 62.24 36.9182 62.752 35.7022 62.752C34.8702 62.752 34.4542 62.528 34.4542 62.08C34.4542 61.632 34.9982 61.216 36.0862 60.832C37.6222 60.256 39.1902 59.04 40.7903 57.184C42.3903 55.328 43.8303 53.408 45.1103 51.424C45.7503 50.464 46.1663 49.6 46.3583 48.832C46.5503 48 46.6463 47.36 46.6463 46.912C46.6463 46.912 46.3583 46.592 45.7823 45.952C45.2703 45.248 45.0143 44.576 45.0143 43.936C45.0143 42.528 45.4623 41.248 46.3583 40.096C47.3183 38.944 48.3103 38.528 49.3343 38.848C50.0383 39.04 50.4863 39.36 50.6783 39.808C50.9343 40.256 51.0623 40.736 51.0623 41.248C51.0623 41.824 50.9663 42.432 50.7743 43.072C50.5823 43.648 50.3903 44.16 50.1983 44.608C50.3903 44.864 50.8063 44.992 51.4463 44.992C52.4063 44.992 53.4623 44.8 54.6143 44.416C55.4463 43.2 56.2463 42.24 57.0143 41.536C57.7823 40.832 58.4863 40.544 59.1263 40.672C59.5743 40.736 59.9903 40.896 60.3743 41.152C60.7583 41.408 60.9503 41.888 60.9503 42.592C60.9503 43.168 60.6623 44.032 60.0863 45.184C59.1263 46.912 58.2303 48.8 57.3983 50.848C56.5663 52.832 55.9263 54.656 55.4783 56.32C55.0303 57.92 54.8383 59.04 54.9023 59.68C55.0303 60.512 55.2543 61.056 55.5743 61.312C55.9583 61.568 56.3743 61.696 56.8223 61.696C57.1423 61.696 57.4623 61.664 57.7823 61.6C58.1663 61.472 58.5183 61.376 58.8383 61.312C59.7983 60.992 60.5983 60.64 61.2383 60.256C61.8783 59.872 62.5503 59.392 63.2543 58.816ZM48.9503 42.592C48.9503 42.016 48.7583 41.6 48.3743 41.344C48.3103 41.28 48.2143 41.248 48.0863 41.248C47.7663 41.248 47.4783 41.472 47.2223 41.92C46.9663 42.304 46.8383 42.688 46.8383 43.072C46.8383 43.392 46.8703 43.776 46.9343 44.224C47.0623 44.608 47.2863 44.704 47.6063 44.512C47.9263 44.32 48.2143 44.064 48.4703 43.744C48.7903 43.424 48.9503 43.04 48.9503 42.592ZM97.716 56.512C97.908 56.32 98.164 56.224 98.484 56.224C98.932 56.224 99.156 56.448 99.156 56.896C99.156 57.152 98.996 57.536 98.676 58.048C98.42 58.56 97.844 59.168 96.948 59.872C96.052 60.64 95.124 61.344 94.164 61.984C93.268 62.624 92.02 62.944 90.42 62.944C88.692 62.944 87.316 62.624 86.292 61.984C85.332 61.344 84.628 60.64 84.18 59.872C83.796 59.04 83.54 58.4 83.412 57.952C82.644 58.528 81.844 59.296 81.012 60.256C80.244 61.152 79.124 61.984 77.652 62.752C76.18 63.456 74.068 63.808 71.316 63.808C69.78 63.808 68.372 63.456 67.092 62.752C65.876 61.984 65.268 60.352 65.268 57.856C65.268 57.152 65.3 56.416 65.364 55.648C65.492 54.816 65.684 53.92 65.94 52.96C66.708 49.952 67.604 47.584 68.628 45.856C69.652 44.128 71.188 42.848 73.236 42.016C74.516 41.504 76.084 41.024 77.94 40.576C79.796 40.128 81.428 39.744 82.836 39.424C83.284 39.296 83.668 38.88 83.988 38.176C84.372 37.408 84.788 36.704 85.236 36.064C85.492 35.744 85.78 35.488 86.1 35.296C86.42 35.04 86.772 34.912 87.156 34.912C87.476 34.912 87.892 35.072 88.404 35.392C88.852 35.712 89.14 36.32 89.268 37.216C89.46 38.112 89.556 38.944 89.556 39.712C89.492 40.096 89.332 40.576 89.076 41.152C88.884 41.664 88.724 42.24 88.596 42.88C88.468 43.712 88.148 44.896 87.636 46.432C87.124 47.968 86.868 49.248 86.868 50.272C86.868 51.168 86.804 52.288 86.676 53.632C86.548 54.912 86.548 55.808 86.676 56.32C87.38 57.856 88.372 58.88 89.652 59.392C90.932 59.84 92.052 59.968 93.012 59.776C93.716 59.648 94.516 59.232 95.412 58.528C96.308 57.824 97.076 57.152 97.716 56.512ZM82.164 45.568C82.036 45.056 81.716 44.512 81.204 43.936C80.756 43.36 80.18 43.072 79.476 43.072C79.348 43.072 79.092 43.136 78.708 43.264C77.62 43.648 76.468 44.384 75.252 45.472C74.036 46.496 72.98 47.84 72.084 49.504C71.188 51.168 70.676 53.12 70.548 55.36C70.548 56 70.74 56.832 71.124 57.856C71.572 58.88 72.148 59.744 72.852 60.448C73.556 61.152 74.26 61.344 74.964 61.024C76.5 60.384 77.78 59.488 78.804 58.336C79.892 57.12 80.788 55.648 81.492 53.92C81.812 53.088 82.036 52.224 82.164 51.328C82.356 50.368 82.452 49.472 82.452 48.64C82.452 47.872 82.42 47.232 82.356 46.72C82.292 46.144 82.228 45.76 82.164 45.568ZM120.944 37.792C120.56 39.2 120.112 40.512 119.6 41.728C119.088 42.944 118.48 44.032 117.776 44.992C116.624 46.592 115.344 48.32 113.936 50.176C112.528 52.032 111.184 54.144 109.904 56.512C108.944 57.6 107.952 58.816 106.928 60.16C105.968 61.504 105.04 62.624 104.144 63.52C103.248 64.352 102.416 64.672 101.648 64.48C101.008 64.288 100.464 63.712 100.016 62.752C99.6323 61.792 99.3443 60.672 99.1523 59.392C98.9603 58.112 98.8323 56.896 98.7683 55.744C98.7683 54.592 98.8003 53.792 98.8643 53.344C99.1843 51.744 99.5683 50.176 100.016 48.64C100.528 47.04 100.784 45.824 100.784 44.992C100.784 44.672 100.304 44.352 99.3443 44.032C98.3843 43.648 97.6163 43.168 97.0403 42.592C96.9763 42.528 96.9443 42.336 96.9443 42.016C96.9443 41.632 97.0083 41.248 97.1363 40.864C97.3283 40.416 97.5203 40.32 97.7123 40.576C98.2883 41.216 98.9603 41.76 99.7283 42.208C100.496 42.592 100.912 42.752 100.976 42.688C102.128 42.368 102.832 41.664 103.088 40.576C103.408 39.488 103.984 38.464 104.816 37.504C105.52 36.736 106.128 36.352 106.64 36.352C107.472 36.352 108.048 36.832 108.368 37.792C108.432 37.984 108.528 38.208 108.656 38.464C108.784 38.72 108.848 39.04 108.848 39.424C108.848 40 108.688 40.576 108.368 41.152C107.92 41.984 107.472 42.72 107.024 43.36C106.576 43.936 105.616 44.48 104.144 44.992C103.824 45.312 103.376 46.336 102.8 48.064C102.224 49.728 101.936 51.776 101.936 54.208C101.936 55.488 102.032 56.64 102.224 57.664C102.48 58.688 103.184 59.264 104.336 59.392C105.616 58.432 106.96 56.992 108.368 55.072C109.84 53.152 110.992 51.072 111.824 48.832C112.08 48.128 112.464 47.136 112.976 45.856C113.552 44.512 114.192 43.136 114.896 41.728C115.664 40.256 116.432 38.88 117.2 37.6C117.968 36.32 118.672 35.36 119.312 34.72C119.696 34.528 120.016 34.432 120.272 34.432C120.912 34.432 121.232 34.944 121.232 35.968C121.232 36.672 121.136 37.28 120.944 37.792ZM105.872 41.152C105.872 40.768 105.776 40.48 105.584 40.288H105.488C105.296 40.288 105.104 40.416 104.912 40.672C104.784 40.864 104.688 41.088 104.624 41.344C104.432 41.664 104.464 41.952 104.72 42.208C104.784 42.272 104.88 42.304 105.008 42.304C105.456 42.304 105.744 41.92 105.872 41.152ZM141.926 52.288C141.094 53.696 140.038 55.232 138.758 56.896C137.478 58.496 136.134 59.872 134.726 61.024C133.382 62.176 132.102 62.752 130.886 62.752C128.902 62.752 127.334 62.656 126.182 62.464C125.094 62.208 124.198 61.856 123.494 61.408C122.278 60.576 121.286 59.488 120.518 58.144C119.75 56.8 119.302 55.424 119.174 54.016C119.11 53.632 119.078 53.248 119.078 52.864C119.078 52.48 119.078 52.128 119.078 51.808C119.078 48.032 119.814 44.704 121.286 41.824C122.758 38.944 124.838 37.216 127.526 36.64C128.358 36.512 128.998 36.864 129.446 37.696C129.894 38.464 130.118 39.52 130.118 40.864C130.118 42.912 129.574 45.12 128.486 47.488C128.038 48.448 127.558 49.376 127.046 50.272C126.598 51.104 126.214 51.776 125.894 52.288C125.062 53.504 124.422 54.336 123.974 54.784C123.59 55.168 123.398 55.552 123.398 55.936C123.398 56.96 124.038 57.952 125.318 58.912C126.598 59.872 128.582 60.352 131.27 60.352C132.294 60.352 133.35 59.904 134.438 59.008C135.526 58.112 136.582 56.992 137.606 55.648C138.694 54.304 139.654 52.96 140.486 51.616C140.87 50.976 141.222 50.656 141.542 50.656C141.926 50.656 142.118 50.944 142.118 51.52C142.118 51.776 142.054 52.032 141.926 52.288ZM127.526 40.192C127.27 39.808 126.726 39.904 125.894 40.48C125.126 40.992 124.422 42.208 123.782 44.128C123.334 45.536 123.11 47.168 123.11 49.024C123.11 49.536 123.11 50.048 123.11 50.56C123.174 51.072 123.238 51.584 123.302 52.096C124.39 50.24 125.158 48.864 125.606 47.968C126.118 47.008 126.502 46.016 126.758 44.992C126.886 44.48 127.078 43.84 127.334 43.072C127.654 42.304 127.814 41.632 127.814 41.056C127.814 40.672 127.718 40.384 127.526 40.192ZM163.492 55.36C162.98 56.512 161.86 57.888 160.132 59.488C158.468 61.088 156.484 62.496 154.18 63.712C151.94 64.864 149.668 65.44 147.364 65.44C144.036 65.44 141.796 64.48 140.644 62.56C139.492 60.576 138.916 57.92 138.916 54.592C138.916 52.352 139.108 49.6 139.492 46.336C139.876 43.072 140.452 39.552 141.22 35.776C141.988 32 142.948 28.192 144.1 24.352C145.252 20.704 146.5 17.152 147.844 13.696C149.188 10.24 151.204 7.232 153.892 4.672C154.34 3.968 154.916 3.616 155.62 3.616C156.196 3.616 156.708 3.872 157.156 4.384C157.604 4.832 157.796 5.376 157.732 6.016C157.732 6.016 157.7 6.816 157.636 8.41599C157.636 10.016 157.54 11.968 157.348 14.272C157.156 16.512 156.868 18.656 156.484 20.704C155.908 24.16 154.852 27.808 153.316 31.648C151.844 35.488 150.276 38.976 148.612 42.112C147.268 44.736 146.18 46.624 145.348 47.776C144.58 48.928 143.972 49.76 143.524 50.272C143.14 50.784 142.852 51.456 142.66 52.288C142.596 52.736 142.532 53.248 142.468 53.824C142.468 54.336 142.468 54.88 142.468 55.456C142.468 56.608 142.532 57.728 142.66 58.816C142.852 59.84 143.076 60.512 143.332 60.832C144.036 61.536 144.804 62.048 145.636 62.368C146.468 62.688 147.3 62.848 148.132 62.848C148.836 62.848 149.476 62.752 150.052 62.56C152.228 61.92 154.436 60.864 156.676 59.392C158.98 57.92 160.612 56.48 161.572 55.072C162.02 54.432 162.372 54.016 162.628 53.824C162.948 53.568 163.204 53.44 163.396 53.44C163.716 53.44 163.876 53.664 163.876 54.112C163.876 54.24 163.844 54.432 163.78 54.688C163.716 54.88 163.62 55.104 163.492 55.36ZM154.756 10.048C154.116 9.92 153.092 11.328 151.684 14.272C150.34 17.216 148.932 21.216 147.46 26.272C147.012 27.808 146.5 29.76 145.924 32.128C145.412 34.496 144.9 36.96 144.388 39.52C143.876 42.016 143.492 44.288 143.236 46.336C145.284 42.176 147.14 38.432 148.804 35.104C150.468 31.776 151.748 28.672 152.644 25.792C153.476 23.488 154.084 21.024 154.468 18.4C154.916 15.776 155.14 13.696 155.14 12.16C155.14 10.944 155.012 10.24 154.756 10.048ZM238.496 59.104C238.944 58.848 239.392 58.848 239.84 59.104C240.352 59.36 240.608 59.744 240.608 60.256C240.608 60.704 240.352 61.184 239.84 61.696C239.328 62.208 238.368 62.656 236.96 63.04C235.616 63.424 234.24 63.616 232.832 63.616C231.552 63.616 230.208 63.456 228.8 63.136C227.456 62.816 226.08 62.432 224.672 61.984C222.304 63.584 219.84 64.832 217.28 65.728C214.784 66.688 212.544 67.168 210.56 67.168C206.656 67.168 203.168 67.072 200.096 66.88C197.088 66.688 194.24 66.016 191.552 64.864C188.928 63.776 186.24 61.92 183.488 59.296C182.144 58.016 181.088 56.16 180.32 53.728C179.552 51.296 179.168 49.088 179.168 47.104C179.168 42.496 179.968 38.496 181.568 35.104C183.168 31.648 185.248 28.544 187.808 25.792C187.232 24.064 186.944 22.368 186.944 20.704C186.944 18.592 187.552 16.576 188.768 14.656C189.984 12.672 191.584 10.88 193.568 9.27999C195.552 7.616 197.664 6.208 199.904 5.056C202.208 3.904 204.416 3.104 206.528 2.65599C207.488 2.4 208.544 2.272 209.696 2.272C211.744 2.272 213.472 2.72 214.88 3.616C216.288 4.448 216.992 5.568 216.992 6.976C216.992 8.128 216.48 9.312 215.456 10.528C214.048 12.192 212.16 13.664 209.792 14.944C207.424 16.224 204.96 17.472 202.4 18.688C199.904 19.84 197.76 21.088 195.968 22.432C195.456 22.816 194.976 23.2 194.528 23.584C194.08 23.968 193.632 24.352 193.184 24.736C194.016 28.576 195.488 32.192 197.6 35.584C199.456 33.024 201.792 30.976 204.608 29.44C207.488 27.84 210.4 27.04 213.344 27.04C217.184 27.04 220.704 27.872 223.904 29.536C227.168 31.136 229.76 33.44 231.68 36.448C233.664 39.456 234.656 42.976 234.656 47.008C234.656 49.44 233.92 51.808 232.448 54.112C231.04 56.352 229.248 58.368 227.072 60.16C228.608 60.736 230.208 61.024 231.872 61.024C234.112 61.024 236.32 60.384 238.496 59.104ZM212.288 6.976C211.84 6.72 211.232 6.592 210.464 6.592C209.12 6.592 207.456 6.976 205.472 7.744C203.488 8.512 201.504 9.568 199.52 10.912C197.6 12.192 196 13.664 194.72 15.328C193.44 16.992 192.8 18.752 192.8 20.608V21.28C194.272 20.128 195.776 19.04 197.312 18.016C198.912 16.928 200.512 15.872 202.112 14.848C202.752 14.464 203.776 13.792 205.184 12.832C206.656 11.872 208.096 10.848 209.504 9.76C210.912 8.672 211.84 7.744 212.288 6.976ZM221.408 60.64C219.296 59.616 217.216 58.432 215.168 57.088C213.184 55.744 211.36 54.336 209.696 52.864C207.648 51.008 206.016 49.376 204.8 47.968C203.648 46.496 202.24 45.056 200.576 43.648C199.616 42.88 198.72 42.048 197.888 41.152C197.312 42.56 197.024 44.064 197.024 45.664C197.024 47.008 197.248 48.416 197.696 49.888C198.144 51.36 198.752 52.608 199.52 53.632C200.352 54.656 201.28 55.168 202.304 55.168C202.816 55.168 203.2 55.296 203.456 55.552C203.712 55.744 203.84 55.968 203.84 56.224C203.84 56.8 203.392 57.088 202.496 57.088C200.576 57.088 199.008 56.416 197.792 55.072C196.576 53.728 195.648 52.16 195.008 50.368C194.432 48.576 194.144 47.008 194.144 45.664C194.144 43.296 194.656 40.992 195.68 38.752C194.464 37.344 193.312 35.84 192.224 34.24C191.136 32.64 190.144 31.008 189.248 29.344C187.904 31.52 187.04 33.888 186.656 36.448C186.336 39.008 186.176 42.016 186.176 45.472V48.736C186.176 50.272 186.304 51.712 186.56 53.056C186.816 54.4 187.456 55.584 188.48 56.608C191.296 59.424 194.56 61.408 198.272 62.56C201.984 63.712 206.08 64.288 210.56 64.288C212.16 64.288 213.92 63.968 215.84 63.328C217.76 62.624 219.616 61.728 221.408 60.64ZM231.776 47.008C231.776 43.616 230.944 40.64 229.28 38.08C227.616 35.52 225.376 33.536 222.56 32.128C219.808 30.656 216.736 29.92 213.344 29.92C210.656 29.92 208 30.688 205.376 32.224C202.816 33.696 200.8 35.648 199.328 38.08C200.288 39.424 201.344 40.576 202.496 41.536C204.16 42.944 205.856 44.32 207.584 45.664C209.376 46.944 211.296 48.512 213.344 50.368C215.072 51.84 216.832 53.344 218.624 54.88C220.416 56.416 222.272 57.728 224.192 58.816C226.304 57.152 228.096 55.296 229.568 53.248C231.04 51.2 231.776 49.12 231.776 47.008ZM332.72 7.936C331.824 10.688 330.096 12.8 327.536 14.272C324.976 15.744 321.776 16.48 317.936 16.48C314.864 16.48 311.664 16.224 308.336 15.712C305.008 15.136 301.68 14.432 298.352 13.6C297.52 15.776 296.912 18.176 296.528 20.8C296.208 23.36 295.792 26.144 295.28 29.152C294.576 33.376 293.648 37.664 292.496 42.016C291.344 46.368 289.808 50.336 287.888 53.92C285.968 57.504 283.472 60.224 280.4 62.08C279.056 62.848 277.776 63.648 276.56 64.48C275.408 65.312 274.096 66.016 272.624 66.592C271.216 67.168 269.392 67.456 267.152 67.456C264.272 67.456 262.096 66.912 260.624 65.824C259.216 64.8 258.256 63.328 257.744 61.408C257.296 59.488 257.072 57.216 257.072 54.592C257.072 54.144 257.168 53.312 257.36 52.096C257.616 50.88 257.872 49.664 258.128 48.448C258.448 47.232 258.736 46.4 258.992 45.952C259.44 44.928 260.208 43.648 261.296 42.112C262.447 40.576 263.76 39.04 265.232 37.504C266.704 35.968 268.208 34.688 269.744 33.664C271.28 32.64 272.688 32.128 273.968 32.128C274.48 32.128 275.056 32.544 275.696 33.376C276.4 34.144 277.008 35.04 277.52 36.064C278.032 37.088 278.288 37.952 278.288 38.656C278.288 38.912 278.16 39.52 277.904 40.48C277.712 41.376 277.296 42.4 276.656 43.552C276.016 44.64 275.056 45.6 273.776 46.432C273.52 46.496 273.264 46.528 273.008 46.528C272.816 46.528 272.592 46.528 272.336 46.528C270.544 46.528 269.648 46.176 269.648 45.472C269.648 44.896 270.224 44.384 271.376 43.936C272.528 43.424 273.392 43.136 273.968 43.072C274.608 43.008 275.024 42.752 275.216 42.304C275.408 41.792 275.504 40.704 275.504 39.04C275.504 38.72 275.408 38.24 275.216 37.6C275.088 36.96 274.896 36.352 274.64 35.776C274.448 35.2 274.224 34.912 273.968 34.912C272.88 34.912 271.792 35.392 270.704 36.352C269.68 37.312 268.72 38.496 267.824 39.904C266.928 41.312 266.128 42.72 265.424 44.128C264.72 45.472 264.208 46.592 263.888 47.488C263.76 47.872 263.536 48.512 263.216 49.408C262.896 50.24 262.608 51.104 262.352 52C262.096 52.832 261.968 53.472 261.968 53.92C261.968 54.752 261.936 55.616 261.872 56.512C261.872 57.344 261.872 58.112 261.872 58.816C261.872 60.544 262.16 61.952 262.736 63.04C263.376 64.128 264.848 64.672 267.152 64.672C269.136 64.672 270.768 64.32 272.048 63.616C273.392 62.848 274.544 61.952 275.504 60.928C276.528 59.84 277.52 58.784 278.48 57.76C282.384 53.792 285.424 49.44 287.6 44.704C289.84 39.904 291.44 34.56 292.4 28.672C292.912 25.536 293.456 22.72 294.032 20.224C294.672 17.664 295.504 15.296 296.528 13.12C293.264 12.224 290.128 11.328 287.12 10.432C284.176 9.472 281.488 8.64 279.056 7.936C277.712 7.488 276.56 7.072 275.6 6.688C274.704 6.24 273.296 6.016 271.376 6.016C269.968 6.016 268.56 6.208 267.152 6.592C265.808 6.91199 265.136 7.744 265.136 9.088C265.136 9.472 265.104 9.92 265.04 10.432C265.04 10.944 265.04 11.456 265.04 11.968C265.04 13.184 265.2 14.432 265.52 15.712C265.84 16.928 266.512 17.984 267.536 18.88C268.56 19.712 270.16 20.192 272.336 20.32C273.232 20.384 273.936 20.192 274.448 19.744C275.024 19.296 275.504 18.848 275.888 18.4C276.144 17.76 276.624 17.44 277.328 17.44C277.968 17.44 278.288 17.888 278.288 18.784C278.288 18.976 278.256 19.168 278.192 19.36C278.192 19.552 278.16 19.776 278.096 20.032C277.456 20.8 276.688 21.536 275.792 22.24C274.96 22.88 273.808 23.2 272.336 23.2C271.248 23.2 270 23.008 268.592 22.624C267.248 22.176 265.936 21.408 264.656 20.32C263.376 19.168 262.352 17.6 261.584 15.616C260.88 13.568 260.624 10.976 260.816 7.84C260.944 6.56 261.424 5.344 262.256 4.192C263.152 3.04 264.24 2.112 265.52 1.408C266.864 0.639997 268.176 0.255997 269.456 0.255997C270.48 0.255997 271.76 0.415997 273.296 0.735996C274.832 1.056 276.4 1.44 278 1.888C279.664 2.336 281.168 2.784 282.512 3.232C283.92 3.68 285.008 4.032 285.776 4.288C287.824 4.928 289.904 5.728 292.016 6.688C294.128 7.584 296.304 8.48 298.544 9.376C298.672 9.184 298.8 8.992 298.928 8.8C299.12 8.608 299.28 8.384 299.408 8.128C300.112 7.168 300.816 6.688 301.52 6.688C301.84 6.688 302 6.848 302 7.168C302 7.744 301.552 8.512 300.656 9.472C300.592 9.536 300.528 9.632 300.464 9.76C300.4 9.824 300.304 9.92 300.176 10.048C303.12 11.2 306.128 12.192 309.2 13.024C312.272 13.856 315.472 14.272 318.8 14.272C324.944 14.272 328.784 12.128 330.32 7.84C330.384 6.176 330.736 5.344 331.376 5.344C331.696 5.344 331.984 5.6 332.24 6.112C332.56 6.624 332.72 7.232 332.72 7.936ZM319.181 45.952C319.181 47.296 318.893 49.056 318.317 51.232C317.741 53.408 316.973 55.456 316.013 57.376C315.117 59.36 314.093 60.832 312.941 61.792C311.853 62.688 310.797 63.328 309.773 63.712C308.749 64.032 307.917 64.352 307.277 64.672C307.021 64.736 306.733 64.8 306.413 64.864C306.157 64.992 305.869 65.056 305.549 65.056C304.269 65.056 303.277 64.704 302.573 64C302.317 63.744 301.901 63.488 301.325 63.232C300.813 62.976 300.333 62.528 299.885 61.888C299.437 61.248 299.213 60.192 299.213 58.72C299.213 57.184 299.405 55.712 299.789 54.304C298.637 52.96 298.061 51.488 298.061 49.888C298.061 48.928 298.285 48 298.733 47.104C299.949 44.8 301.485 43.008 303.341 41.728C305.197 40.448 306.957 39.552 308.621 39.04C310.349 38.528 311.533 38.272 312.173 38.272C314.541 38.272 316.301 39.04 317.453 40.576C318.605 42.112 319.181 43.904 319.181 45.952ZM315.245 46.432C315.245 44.96 314.733 43.744 313.709 42.784C312.749 41.824 311.533 41.344 310.061 41.344C308.845 41.344 307.597 41.728 306.317 42.496C305.101 43.2 304.045 44.096 303.148 45.184C302.253 46.272 301.677 47.328 301.421 48.352C301.357 48.736 301.293 49.088 301.229 49.408C301.229 49.728 301.229 50.048 301.229 50.368C301.933 48.832 302.669 47.552 303.437 46.528C304.269 45.504 304.877 44.864 305.261 44.608C305.581 44.352 305.997 44.224 306.509 44.224C307.213 44.224 307.565 44.416 307.565 44.8C307.565 45.056 307.213 45.536 306.509 46.24C305.869 46.88 305.133 47.744 304.301 48.832C303.469 49.856 302.765 51.136 302.189 52.672C302.701 53.312 303.373 53.792 304.205 54.112C305.101 54.368 305.965 54.496 306.797 54.496C307.693 54.496 308.525 54.336 309.293 54.016C310.125 53.632 310.669 53.12 310.924 52.48C310.989 52.288 311.021 52.128 311.021 52C311.085 51.808 311.117 51.648 311.117 51.52C311.117 50.88 310.829 50.496 310.253 50.368C309.74 50.176 309.229 50.112 308.717 50.176H308.525C307.821 50.176 307.469 50.016 307.469 49.696C307.469 49.504 307.533 49.312 307.661 49.12C307.853 48.928 308.013 48.768 308.141 48.64C308.525 48.256 308.941 48.064 309.389 48.064C310.029 48.064 310.733 48.48 311.501 49.312C312.205 50.272 312.557 51.2 312.557 52.096C312.557 53.248 311.981 54.144 310.829 54.784C309.741 55.424 308.525 55.872 307.181 56.128C305.837 56.384 304.813 56.512 304.109 56.512C303.085 56.512 302.253 56.288 301.613 55.84C301.549 55.968 301.517 56.256 301.517 56.704C301.517 58.496 301.997 59.712 302.957 60.352C303.917 60.928 304.717 61.376 305.357 61.696C305.741 61.824 306.061 61.888 306.317 61.888C307.213 61.888 308.141 61.504 309.101 60.736C310.125 59.968 311.021 58.912 311.789 57.568C312.365 56.544 312.909 55.328 313.421 53.92C313.933 52.512 314.349 51.136 314.669 49.792C315.053 48.384 315.245 47.264 315.245 46.432ZM349.919 57.952C348.255 59.936 346.815 61.312 345.599 62.08C344.383 62.848 343.327 63.232 342.431 63.232C341.279 63.232 340.287 62.784 339.455 61.888C338.687 60.928 338.015 59.904 337.439 58.816C336.927 57.728 336.511 56.96 336.191 56.512C334.975 57.6 333.535 58.752 331.871 59.968C330.207 61.12 328.831 61.696 327.743 61.696C325.695 61.696 324.095 61.184 322.943 60.16C321.791 59.072 321.215 57.504 321.215 55.456C321.215 53.344 321.471 50.848 321.983 47.968C322.559 45.088 323.263 42.24 324.095 39.424C324.927 36.544 325.727 34.144 326.495 32.224C326.687 31.648 327.071 31.168 327.647 30.784C328.287 30.4 328.927 30.208 329.567 30.208C330.335 30.208 330.847 30.4 331.103 30.784C331.359 31.168 331.487 31.616 331.487 32.128C331.487 32.768 331.359 33.408 331.103 34.048C330.911 34.624 330.815 34.912 330.815 34.912C330.047 37.088 329.151 39.36 328.127 41.728C327.167 44.096 326.271 46.784 325.439 49.792C325.375 50.176 325.279 50.72 325.151 51.424C325.087 52.128 325.055 52.864 325.055 53.632C325.055 54.72 325.183 55.744 325.439 56.704C325.759 57.6 326.335 58.048 327.167 58.048C327.871 58.048 328.799 57.632 329.951 56.8C331.167 55.968 332.383 54.816 333.599 53.344C334.815 51.872 335.775 50.176 336.479 48.256C337.119 46.528 337.695 44.64 338.207 42.592C338.719 40.544 339.167 38.624 339.551 36.832C339.999 34.976 340.415 33.536 340.799 32.512C340.991 32.064 341.279 31.84 341.663 31.84C342.175 31.84 342.623 32.032 343.007 32.416C343.455 32.8 343.615 33.152 343.487 33.472C343.231 34.112 342.879 35.168 342.431 36.64C341.983 38.112 341.535 39.744 341.087 41.536C340.639 43.328 340.223 45.088 339.839 46.816C339.455 48.48 339.135 49.888 338.879 51.04C338.623 52.192 338.495 52.832 338.495 52.96C338.495 53.92 338.591 54.784 338.783 55.552C338.975 56.32 339.295 57.152 339.743 58.048C340.063 58.56 340.447 59.136 340.895 59.776C341.407 60.352 341.919 60.64 342.431 60.64C343.647 60.64 344.799 60.224 345.887 59.392C347.039 58.496 347.903 57.632 348.479 56.8C348.927 56.096 349.343 55.744 349.727 55.744C350.111 55.744 350.303 56.096 350.303 56.8C350.303 57.312 350.175 57.696 349.919 57.952ZM370.473 58.816C370.729 58.56 371.081 58.432 371.529 58.432C371.977 58.432 372.201 58.624 372.201 59.008C372.201 59.456 371.689 60.16 370.665 61.12C369.641 62.08 368.521 62.848 367.305 63.424C366.089 64 364.937 64.416 363.849 64.672C363.337 64.736 362.633 64.544 361.737 64.096C360.905 63.712 360.393 63.296 360.201 62.848C359.945 62.272 359.753 61.632 359.625 60.928C359.497 60.16 359.433 59.36 359.433 58.528C359.433 56.544 359.657 54.496 360.105 52.384C360.553 50.272 360.969 48.448 361.353 46.912C360.585 47.168 359.721 47.296 358.761 47.296C357.865 47.296 357.065 47.36 356.361 47.488C355.913 48.128 355.529 48.864 355.209 49.696C354.889 50.464 354.441 51.328 353.865 52.288C352.841 53.952 351.689 55.616 350.409 57.28C349.193 58.88 347.945 60.192 346.665 61.216C345.385 62.24 344.137 62.752 342.921 62.752C342.089 62.752 341.673 62.528 341.673 62.08C341.673 61.632 342.217 61.216 343.305 60.832C344.841 60.256 346.409 59.04 348.009 57.184C349.609 55.328 351.049 53.408 352.329 51.424C352.969 50.464 353.385 49.6 353.577 48.832C353.769 48 353.865 47.36 353.865 46.912C353.865 46.912 353.577 46.592 353.001 45.952C352.489 45.248 352.233 44.576 352.233 43.936C352.233 42.528 352.681 41.248 353.577 40.096C354.537 38.944 355.529 38.528 356.553 38.848C357.257 39.04 357.705 39.36 357.897 39.808C358.153 40.256 358.281 40.736 358.281 41.248C358.281 41.824 358.185 42.432 357.993 43.072C357.801 43.648 357.609 44.16 357.417 44.608C357.609 44.864 358.025 44.992 358.665 44.992C359.625 44.992 360.681 44.8 361.833 44.416C362.665 43.2 363.465 42.24 364.233 41.536C365.001 40.832 365.705 40.544 366.345 40.672C366.793 40.736 367.209 40.896 367.593 41.152C367.977 41.408 368.169 41.888 368.169 42.592C368.169 43.168 367.881 44.032 367.305 45.184C366.345 46.912 365.449 48.8 364.617 50.848C363.785 52.832 363.145 54.656 362.697 56.32C362.249 57.92 362.057 59.04 362.121 59.68C362.249 60.512 362.473 61.056 362.793 61.312C363.177 61.568 363.593 61.696 364.041 61.696C364.361 61.696 364.681 61.664 365.001 61.6C365.385 61.472 365.737 61.376 366.057 61.312C367.017 60.992 367.817 60.64 368.457 60.256C369.097 59.872 369.769 59.392 370.473 58.816ZM356.169 42.592C356.169 42.016 355.977 41.6 355.593 41.344C355.529 41.28 355.433 41.248 355.305 41.248C354.985 41.248 354.697 41.472 354.441 41.92C354.185 42.304 354.057 42.688 354.057 43.072C354.057 43.392 354.089 43.776 354.153 44.224C354.281 44.608 354.505 44.704 354.825 44.512C355.145 44.32 355.433 44.064 355.689 43.744C356.009 43.424 356.169 43.04 356.169 42.592Z" fill="#03454A"/>
</svg>
